<?xml version="1.0" encoding="utf-8"?>
<!-- Generator: Adobe Illustrator 24.0.3, SVG Export Plug-In . SVG Version: 6.00 Build 0)  -->
<svg version="1.1" id="Layer_1" xmlns="http://www.w3.org/2000/svg" xmlns:xlink="http://www.w3.org/1999/xlink" x="0px" y="0px"
	 viewBox="0 0 360 360" style="enable-background:new 0 0 360 360;" xml:space="preserve">
<style type="text/css">
	.st0{fill:url(#SVGID_1_);}
	.st1{fill:url(#SVGID_2_);}
	.st2{opacity:0.44;fill:url(#SVGID_3_);}
	.st3{opacity:0.44;fill:url(#SVGID_4_);}
	.st4{opacity:0.44;fill:url(#SVGID_5_);}
	.st5{opacity:0.44;fill:url(#SVGID_6_);}
</style>
<rect width="360" height="360"/>
<g>
	<linearGradient id="SVGID_1_" gradientUnits="userSpaceOnUse" x1="99.173" y1="264.0448" x2="198.5963" y2="121.0393">
		<stop  offset="0" style="stop-color:#71CCD2"/>
		<stop  offset="1" style="stop-color:#00B1ED"/>
	</linearGradient>
	<path class="st0" d="M130.13,100.39l-25.79-20.45c-0.82-0.59-1.48-0.99-1.95-1.2c-0.48-0.22-0.74-0.25-0.85-0.25l-0.15,0.03
		c-0.06,0.02-0.15,0.07-0.3,0.18L78.77,96.72l27.75,21.95C112.7,111.41,120.77,105.25,130.13,100.39z M262.7,203.62
		c-0.78-1.95-2.12-4.01-4.66-5.98l-109.41-83.19c-5.95,3.54-11.82,7.28-18.06,10.79c-2.98,1.68-5.94,3.31-8.88,4.95l114.07,86.73
		l-7.35,7.35c-6.72,6.71-14.97,10.97-23.38,13.56c-8.43,2.59-17.12,3.57-25.25,3.57c-7.72,0-15.77-1.15-23.38-3.24
		c-7.44-2.07-14.46-5.02-20.29-9.16c0,0-0.25-0.18-0.31-0.22c-3.83-2.81-7.31-6.31-9.5-10.86c-0.01-0.03-0.02-0.05-0.06-0.14
		c-1.65-3.69-1.41-13.2-1.41-13.95H96.18c0,5.09-0.01,0.36,0,5.44c0.01,6.79,1.15,13.19,3.94,19.42c0.25,0.57,1.93,4.8,2.48,4.8
		c4.26,7.24,10.51,13.7,18.28,19.11c15.46,10.8,37.04,17.15,58.8,17.15c0,0,0.06,0,0.07,0c0,0,0.07,0,0.09,0
		c16.9,0,33.24-3.66,46.8-10.12c13.59-6.45,24.29-15.66,30.52-26.46c3.78-6.56,5.99-13.68,6.39-21.6c0-0.42,0.04-0.76,0.06-1.2
		c0.03-0.43,0.05-0.93,0.05-1.48C263.65,207.43,263.47,205.57,262.7,203.62z"/>
	<linearGradient id="SVGID_2_" gradientUnits="userSpaceOnUse" x1="128.7106" y1="289.8817" x2="226.7455" y2="148.873">
		<stop  offset="0" style="stop-color:#71CCD2"/>
		<stop  offset="1" style="stop-color:#00B1ED"/>
	</linearGradient>
	<path class="st1" d="M256.32,244.24c-6.06,7.32-14.02,13.56-23.3,18.51l23.45,17.63l-0.01-0.01c0.28,0.21,0.66,0.44,1.07,0.59
		c0.41,0.16,0.83,0.25,1.22,0.25c0.58-0.02,1.13-0.14,1.92-0.8l0.03-0.03l21.07-17.01L256.32,244.24z M249.79,239.32l-123.17-92.63
		l7.35-7.35c6.63-6.61,14.91-10.82,23.34-13.43v0l0.03-0.01l-0.01,0c0.01,0,0.01,0,0.02,0c8.46-2.61,17.2-3.67,25.24-3.68h0
		c7.74,0,15.8,1.15,23.37,3.24l0.13,0.04l0.03,0.01c7.5,2.1,14.58,5.09,20.38,9.29l0.04,0.03l0.03,0.03l0,0.01
		c5.76,3.64,9.5,10.87,9.5,10.88l0.01,0.01l0,0c0,0.01,0.01,0.01,0.01,0.02h0v0.01c0.63,1.32,1.11,2.73,1.46,4.19h28.63
		c-0.66-7.19-2.82-13.7-6.32-19.71l-0.01-0.02c-4.23-7.22-10.42-13.69-18.14-19.11l-0.07-0.05c-15.38-10.8-36.91-17.21-58.94-17.2
		h-0.15c-16.9,0-33.26,3.62-46.8,10.03l-0.01,0.01c-13.59,6.42-24.28,15.59-30.5,26.4c-4.05,7.04-6.31,14.76-6.45,23.43v0.04l0,0.04
		c-0.01,0.16-0.01,0.31-0.01,0.47c-0.01,2.55,1.05,5.34,3,8.08c1.93,2.74,4.72,5.39,7.88,7.61l0.04,0.02l114.95,86.41
		c0.62-0.13,1.25-0.22,1.87-0.39C236.7,253.24,243.68,247.26,249.79,239.32z"/>
	<linearGradient id="SVGID_3_" gradientUnits="userSpaceOnUse" x1="231.5083" y1="235.173" x2="248.1488" y2="222.3364">
		<stop  offset="0" style="stop-color:#FFFFFF"/>
		<stop  offset="1" style="stop-color:#000000"/>
	</linearGradient>
	<path class="st2" d="M257.48,232.55l-27.07-19.66l5.34,4.04l-7.35,7.35c-6.72,6.71-14.97,10.97-23.38,13.56
		c-0.96,0.29-1.93,0.5-2.9,0.75l2.41,28.5c7.87-1.72,15.33-4.25,22.09-7.47c13.59-6.45,24.29-15.66,30.52-26.46
		C257.26,232.97,257.37,232.75,257.48,232.55z"/>
	<linearGradient id="SVGID_4_" gradientUnits="userSpaceOnUse" x1="132.7402" y1="128.1777" x2="101.363" y2="155.7511">
		<stop  offset="0" style="stop-color:#FFFFFF"/>
		<stop  offset="1" style="stop-color:#000000"/>
	</linearGradient>
	<path class="st3" d="M105.28,130.25l21.63,16.16l7.07-7.07c6.63-6.61,14.91-10.82,23.34-13.43v0l0.03-0.01l-0.01,0
		c0.01,0,0.01,0,0.02,0c3.35-1.03,6.75-1.76,10.13-2.34l-21.38-23.8c-3.59,1.22-7.06,2.61-10.35,4.16l-0.01,0.01
		C122.17,110.32,111.51,119.47,105.28,130.25z"/>
	<linearGradient id="SVGID_5_" gradientUnits="userSpaceOnUse" x1="206.8673" y1="226.0904" x2="228.4987" y2="244.1589">
		<stop  offset="0" style="stop-color:#FFFFFF"/>
		<stop  offset="1" style="stop-color:#000000"/>
	</linearGradient>
	<path class="st4" d="M228.71,223.47l-46.99-35.34l-21.27,20.05l40.74,30.63C214.82,234.93,224.37,227.45,228.71,223.47z"/>
	<linearGradient id="SVGID_6_" gradientUnits="userSpaceOnUse" x1="163.8837" y1="143.5471" x2="144.2726" y2="118.9442">
		<stop  offset="0" style="stop-color:#FFFFFF"/>
		<stop  offset="1" style="stop-color:#000000"/>
	</linearGradient>
	<path class="st5" d="M134.12,139.65l41.54,31.59l20.49-20.65l-34.05-25.89C154.63,126.81,144.09,131.1,134.12,139.65z"/>
</g>
</svg>
